<?xml version="1.0" encoding="UTF-8"?>
<svg class="hovered-paths" enable-background="new 0 0 512 512" version="1.1" viewBox="49.32 0 413.35 512" xml:space="preserve" xmlns="http://www.w3.org/2000/svg"><g><g fill="#dcd2cd"><path class="" d="m420.36 3e-3c-17.832 0-307.77-3e-3 -323.3-3e-3 -26.362 0-47.732 21.37-47.732 47.732v450.55c0 7.576 6.141 13.716 13.716 13.716h300.77c7.574 0 13.716-6.141 13.716-13.716v-148.21h73.527c6.419 0 11.622-5.204 11.622-11.622v-296.14c1e-3 -23.274-19.041-42.315-42.313-42.315z" style=""/><path class="" d="m417.22 5e-3v0.083c-22.093 1.321-39.745 19.815-39.745 42.22l0.052 79.375v376.6c0 7.572-6.137 13.709-13.709 13.709h-300.77c-7.572 0-13.709-6.137-13.709-13.709v-450.56c0-26.358 21.365-47.723 47.723-47.723h320.16z" style=""/></g><path class="hovered-path" d="m418.12 5e-3 -0.908 0.083c-22.093 1.321-39.745 19.815-39.745 42.22l0.052 79.375v355.7h-259.5c-15.533 0-28.125-12.592-28.125-28.125v-401.52c0-26.357 21.366-47.723 47.723-47.723h280.5z" fill="#ebe1dc" style=""/><path class="" d="m451.05 350.08h-73.571v-307.76c0-23.273 19.041-42.314 42.314-42.314h0.566c23.273 0 42.314 19.041 42.314 42.314v296.14c-1e-3 6.42-5.204 11.623-11.623 11.623z" fill="#dcd2cd" style=""/><g fill="#6990d7">	<circle class="" cx="119.26" cy="83.349" r="18.754" style=""/>
    <path class="" d="m332.48 91.146h-106.1c-4.309 0-7.801-3.492-7.801-7.801s3.492-7.801 7.801-7.801h106.1c4.309 0 7.801 3.492 7.801 7.801 1e-3 4.309-3.491 7.801-7.801 7.801zm-137.3 0h-14.986c-4.309 0-7.801-3.492-7.801-7.801s3.492-7.801 7.801-7.801h14.986c4.309 0 7.801 3.492 7.801 7.801 1e-3 4.309-3.491 7.801-7.801 7.801z" style=""/>
    <circle class="" cx="119.26" cy="170.23" r="18.754" style=""/>
    <path class="" d="m332.48 178.03h-152.29c-4.309 0-7.801-3.492-7.801-7.801s3.492-7.801 7.801-7.801h152.29c4.309 0 7.801 3.492 7.801 7.801s-3.492 7.801-7.802 7.801z" style=""/>
    <circle class="" cx="119.26" cy="257.12" r="18.754" style=""/>
    <path class="" d="m332.48 264.92h-14.986c-4.309 0-7.801-3.492-7.801-7.801s3.492-7.801 7.801-7.801h14.986c4.309 0 7.801 3.492 7.801 7.801 1e-3 4.309-3.491 7.801-7.801 7.801zm-46.19 0h-106.1c-4.309 0-7.801-3.492-7.801-7.801s3.492-7.801 7.801-7.801h106.1c4.309 0 7.801 3.492 7.801 7.801s-3.492 7.801-7.801 7.801z" style=""/>
    <circle class="" cx="119.26" cy="342.76" r="18.754" style=""/>
    <path class="" d="m332.48 350.56h-152.29c-4.309 0-7.801-3.492-7.801-7.801s3.492-7.801 7.801-7.801h152.29c4.309 0 7.801 3.492 7.801 7.801s-3.492 7.801-7.802 7.801z" style=""/>
    <circle class="" cx="119.26" cy="429.64" r="18.754" style=""/>
    <path class="" d="m332.48 437.44h-152.29c-4.309 0-7.801-3.492-7.801-7.801s3.492-7.801 7.801-7.801h152.29c4.309 0 7.801 3.492 7.801 7.801s-3.492 7.801-7.802 7.801z" style=""/></g></g></svg>