<svg xmlns="http://www.w3.org/2000/svg" version="1.1" xmlns:xlink="http://www.w3.org/1999/xlink" xmlns:svgjs="http://svgjs.com/svgjs" width="512" height="512" x="0" y="0" viewBox="0 0 512 512" style="enable-background:new 0 0 512 512" xml:space="preserve" class=""><g><path d="m256 0-20.015625 256 20.015625 256c141.386719 0 256-114.613281 256-256s-114.613281-256-256-256zm0 0" fill="#ffb655" data-original="#ffb655"></path><path d="m256 63.734375-20.015625 192.265625 20.015625 192.265625c106.015625 0 192.265625-86.25 192.265625-192.265625s-86.25-192.265625-192.265625-192.265625zm0 0" fill="#e1ebf0" data-original="#e1ebf0" class=""></path><path d="m0 256c0 141.386719 114.613281 256 256 256v-512c-141.386719 0-256 114.613281-256 256zm0 0" fill="#ffe477" data-original="#ffe477" class=""></path><path d="m63.734375 256c0 106.015625 86.25 192.265625 192.265625 192.265625v-384.53125c-106.015625 0-192.265625 86.25-192.265625 192.265625zm0 0" fill="#fff5f5" data-original="#fff5f5" class=""></path><path d="m263.90625 185.566406c15.285156 0 27.71875 12.433594 27.71875 27.714844h30c0-29.421875-22.136719-53.753906-50.625-57.265625v-33.289063h-15l-10.007812 43.941407 10.007812 18.898437zm0 0" fill="#87a0af" data-original="#87a0af"></path><path d="m263.90625 241h-7.90625l-10.007812 15 10.007812 15h7.90625c15.285156 0 27.71875 12.433594 27.71875 27.71875 0 15.28125-12.433594 27.714844-27.71875 27.714844h-7.90625l-10.007812 17.570312 10.007812 45.269532h15v-33.289063c28.488281-3.511719 50.625-27.84375 50.625-57.265625 0-31.828125-25.890625-57.71875-57.71875-57.71875zm0 0" fill="#87a0af" data-original="#87a0af"></path><g fill="#b4d2d7"><path d="m248.09375 326.433594c-15.285156 0-27.71875-12.433594-27.71875-27.714844h-30c0 29.421875 22.136719 53.753906 50.625 57.265625v33.289063h15v-62.839844zm0 0" fill="#b4d2d7" data-original="#b4d2d7" class=""></path><path d="m248.09375 241c-15.285156 0-27.71875-12.433594-27.71875-27.71875 0-15.28125 12.433594-27.714844 27.71875-27.714844h7.90625v-62.839844h-15v33.289063c-28.488281 3.511719-50.625 27.84375-50.625 57.265625 0 31.828125 25.890625 57.71875 57.71875 57.71875h7.90625v-30zm0 0" fill="#b4d2d7" data-original="#b4d2d7" class=""></path></g></g></svg>