<svg xmlns="http://www.w3.org/2000/svg" version="1.1" xmlns:xlink="http://www.w3.org/1999/xlink" xmlns:svgjs="http://svgjs.com/svgjs" width="512" height="512" x="0" y="0" viewBox="0 0 512 512" style="enable-background:new 0 0 512 512" xml:space="preserve" class=""><g><path id="_x30_3" d="m493.176 274.813c0 130.983-106.168 237.184-237.201 237.184-131 0-237.15-106.2-237.15-237.184 0-130.975 106.15-237.184 237.15-237.184 131.033 0 237.201 106.209 237.201 237.184z" fill="#fbb040" data-original="#fbb040" class=""></path><path id="_x30_2" d="m270.676 435.463c-131.001 0-196.551-72.533-233.001-111.434v43.566c10.767 25.301 25.8 48.334 44.2 68.234v-43.9c15.716 17 33.833 31.699 53.9 43.533v43.783c13.883 8.184 28.7 14.983 44.2 20.25v-43.733c17.184 5.8 35.2 9.8 53.9 11.533v43.634c7.3.666 14.65 1.066 22.1 1.066 7.467 0 14.85-.4 22.135-1.066v-43.634c18.699-1.733 36.715-5.733 53.898-11.533v43.7c15.5-5.233 30.301-12.033 44.201-20.217v-43.783c20.066-11.834 38.184-26.533 53.9-43.533v43.9c18.398-19.9 33.449-42.934 44.215-68.234v-43.566c-25.533 17.834-72.615 111.434-203.648 111.434zm-157.651-99.834c-9.684-21.633-15.2-45.566-15.2-70.808 0-95.9 77.717-173.65 173.634-173.65 59.332 0 111.666 29.8 142.982 75.191-12.933-70.108-97.298-117.041-167.966-117.041-95.9 0-177.767 86.866-177.767 182.758 0 36.567 2.834 83.2 44.317 103.55z" fill="#f7941e" data-original="#f7941e" class=""></path><path id="_x30_1" d="m255.975.004c-131 0-237.15 106.2-237.15 237.175 0 131.018 106.15 237.185 237.15 237.185 131.033 0 237.201-106.167 237.201-237.185 0-130.975-106.168-237.175-237.201-237.175zm0 410.826c-95.9 0-173.633-77.75-173.633-173.651 0-95.892 77.733-173.649 173.633-173.649 95.918 0 173.668 77.758 173.668 173.649 0 95.901-77.75 173.651-173.668 173.651z" fill="#f9ed32" data-original="#f9ed32" class=""></path></g></svg>