<svg xmlns="http://www.w3.org/2000/svg" version="1.1" x="0" y="0" style="enable-background:new 0 0 512 512" xml:space="preserve" class="" viewBox="0 9.28 512.06 493.51"><g><script type="text/javascript"/><g xmlns="http://www.w3.org/2000/svg"><g fill="#dbea82"><path d="m159.187 50.035c-26.572 19.938-44.706 46.961-53.935 76.416 23.796 3.334 46.278 13.269 64.348 29.107 53.472 46.87 134.225 51.487 193.233 6.982 13.91-10.491 25.522-22.898 34.757-36.571-5.049-15.886-12.811-31.192-23.319-45.309-50.451-67.776-147.026-81.692-215.084-30.625z" fill="#dbea82"/><path d="m103.54 476.773c30.553 13.043 63.022 15.236 93.146 8.501-9.011-22.275-11.648-46.713-6.966-70.28 13.855-69.743-22.523-141.986-90.57-170.836-16.041-6.801-32.591-10.654-49.05-11.815-11.233 12.316-20.608 26.691-27.579 42.849-33.471 77.58 2.765 168.174 81.019 201.581z" fill="#dbea82"/><path d="m500.93 311.595c-3.981-32.981-18.316-62.197-39.21-84.917-14.785 18.941-34.63 33.444-57.381 41.173-67.327 22.873-111.702 90.499-102.663 163.854 2.131 17.292 7.069 33.551 14.293 48.386 16.283 3.57 33.419 4.501 50.898 2.46 83.92-9.804 144.259-86.482 134.063-170.956z" fill="#dbea82"/></g><g><path d="m103.864 136.354c22.313 3.126 42.766 12.367 59.144 26.724 27.802 24.369 63.567 38.655 100.709 40.228 2.28.096 4.555.145 6.831.144 35.316 0 69.988-11.569 98.306-32.926 11.479-8.657 21.659-18.705 30.417-29.921 9.958 8.965 19.053 18.896 27.062 29.625 1.964 2.63 4.974 4.019 8.021 4.019 2.08 0 4.179-.647 5.975-1.987 4.426-3.304 5.335-9.57 2.031-13.996-10.49-14.052-22.68-26.854-36.154-38.096-5.48-16.219-13.514-31.506-23.915-45.478-21.342-28.672-50.8-49.076-85.189-59.007-33.265-9.605-69.42-8.374-101.805 3.469-5.187 1.896-7.854 7.639-5.957 12.826 1.896 5.186 7.638 7.854 12.826 5.957 28.426-10.396 60.171-11.474 89.387-3.037 30.155 8.708 55.984 26.597 74.695 51.734 2.63 3.533 5.065 7.171 7.346 10.884-2.843-1.622-5.71-3.2-8.621-4.693-29.098-14.92-60.354-23.071-93.025-24.318l-22.751-20.058c-4.143-3.652-10.461-3.255-14.114.888-3.652 4.143-3.255 10.462.888 14.114l6.582 5.802c-15.19 1.386-30.158 4.309-44.706 8.743-5.283 1.61-8.261 7.198-6.65 12.481 1.609 5.283 7.203 8.263 12.48 6.65 19.181-5.846 39.176-8.81 59.431-8.81 17.587 0 34.742 2.194 51.341 6.51l-24.043 19.718c-4.27 3.502-4.893 9.803-1.391 14.074 1.978 2.411 4.846 3.659 7.738 3.659 2.23 0 4.476-.743 6.336-2.268l33.955-27.847c6.367 2.493 12.642 5.299 18.804 8.459 9.75 4.999 19.092 10.827 27.931 17.354-7.742 9.975-16.778 18.895-26.97 26.583-26.451 19.95-59.216 30.165-92.248 28.768-32.603-1.38-63.986-13.912-88.371-35.286-16.335-14.318-36.056-24.315-57.587-29.279 4.401-10.958 10.114-21.284 17.055-30.808 3.252-4.463 2.271-10.719-2.192-13.971-4.463-3.251-10.72-2.271-13.972 2.193-10.441 14.33-18.444 30.24-23.786 47.289-.878 2.804-.479 5.852 1.092 8.335 1.571 2.481 4.154 4.148 7.064 4.556z" fill="#000000" class=""/><path d="m199.528 416.943c7.203-36.261 1.693-74.378-15.517-107.331-17.447-33.408-46.199-59.923-80.958-74.66-13.236-5.612-27.024-9.428-41.117-11.404 2.784-13.099 6.836-25.933 12.12-38.227 2.181-5.074-.165-10.955-5.238-13.136-5.079-2.182-10.956.165-13.137 5.239-6.924 16.111-11.916 33.069-14.915 50.359-11.305 12.854-20.528 27.457-27.428 43.45-17.222 39.916-17.785 84.234-1.586 124.789 16.283 40.769 47.486 72.713 87.862 89.95 20.291 8.663 41.781 13.039 63.482 13.039 11.915 0 23.897-1.32 35.771-3.975 2.867-.641 5.309-2.511 6.673-5.113 1.366-2.602 1.518-5.673.416-8.396-8.448-20.89-10.672-43.222-6.428-64.584zm-92.061 50.633c-35.448-15.133-62.845-43.18-77.141-78.974-14.212-35.581-13.723-74.45 1.376-109.448 1.745-4.044 3.677-7.972 5.753-11.804.017 3.273.083 6.545.246 9.812 1.628 32.66 10.197 63.805 25.454 92.722l-5.995 29.732c-1.092 5.414 2.412 10.688 7.826 11.779.667.134 1.332.199 1.987.199 4.662 0 8.835-3.279 9.792-8.025l1.734-8.6c8.795 12.461 18.811 23.963 29.924 34.344 1.928 1.801 4.379 2.692 6.824 2.692 2.674 0 5.341-1.066 7.31-3.174 3.771-4.036 3.555-10.364-.481-14.134-14.652-13.688-27.217-29.522-37.345-47.063-8.794-15.231-15.471-31.185-20.033-47.718l29.098 10.963c1.161.438 2.353.645 3.523.645 4.043 0 7.85-2.47 9.359-6.477 1.947-5.168-.663-10.937-5.832-12.884l-41.094-15.483c-1.025-6.76-1.732-13.598-2.077-20.515-.545-10.943-.17-21.948 1.063-32.865 12.51 1.717 24.754 5.081 36.507 10.064 30.502 12.932 55.73 36.196 71.037 65.506 15.106 28.925 19.945 62.37 13.627 94.175-4.232 21.307-3.03 43.383 3.438 64.513-25.784 3.688-51.802.297-75.88-9.982z" fill="#000000" class=""/><path d="m510.857 310.397c-4.095-33.93-18.541-65.221-41.777-90.488-1.989-2.164-4.85-3.345-7.764-3.223-2.937.118-5.671 1.522-7.479 3.838-13.864 17.761-32.093 30.852-52.716 37.858-35.004 11.892-65.26 35.723-85.192 67.103-20.209 31.814-28.796 69.972-24.179 107.443 1.758 14.269 5.347 28.117 10.682 41.31-12.736 4.138-25.876 7.047-39.166 8.617-5.484.648-9.405 5.62-8.757 11.104.601 5.086 4.92 8.827 9.918 8.827.392 0 .788-.023 1.187-.07 17.421-2.059 34.608-6.217 51.086-12.268 10.496 2.102 21.173 3.169 31.934 3.169 6.442 0 12.914-.378 19.392-1.134 43.18-5.044 81.841-26.715 108.864-61.021 27.166-34.487 39.228-77.482 33.967-121.065zm-49.677 108.689c-23.709 30.098-57.615 49.109-95.474 53.532-4.375.511-8.743.802-13.1.921 2.826-1.651 5.627-3.345 8.374-5.119 27.471-17.739 50.159-40.733 67.574-68.404l28.746-9.674c5.234-1.762 8.05-7.433 6.288-12.667-1.761-5.233-7.43-8.052-12.667-6.288l-8.315 2.799c6.394-13.847 11.346-28.271 14.78-43.087 1.248-5.38-2.103-10.753-7.483-12-5.379-1.248-10.752 2.103-11.999 7.483-4.529 19.536-11.96 38.335-22.086 55.874-8.794 15.231-19.272 28.99-31.309 41.207l-5.055-30.681c-.898-5.449-6.028-9.138-11.493-8.242-5.449.898-9.139 6.043-8.241 11.493l7.139 43.33c-5.342 4.268-10.91 8.299-16.728 12.056-9.205 5.944-18.922 11.121-28.994 15.512-4.768-11.692-7.976-23.978-9.537-36.648-4.051-32.882 3.481-66.362 21.211-94.273 17.497-27.545 44.041-48.459 74.744-58.89 20.568-6.988 39.087-19.067 54.151-35.233 16.09 20.488 26.159 44.716 29.296 70.707 4.618 38.265-5.973 76.014-29.822 106.292z" fill="#000000" class=""/><circle cx="159.183" cy="50.036" r="10" fill="#000000" class=""/></g></g></g></svg>