<?xml version="1.0" encoding="UTF-8"?>
<svg class="" enable-background="new 0 0 512 512" version="1.1" viewBox="0 0 512 512" xml:space="preserve" xmlns="http://www.w3.org/2000/svg"><path d="M507 367v140H57L5 455V315h450z" fill="#35322b"/><path class="" d="M145 5H5l52 52v258h140V57z" fill="#c5c2a1"/><path d="M5 315h450v140H5z" fill="#504c43"/><path d="M200 355h200v60H200z" fill="#9cd3fc"/><path d="m490 385v70l-18-18v-70zm-195-10h10v20h-10zm20 0h10v20h-10zm20 0h10v20h-10zm20 0h10v20h-10z" fill="#504c43"/><path class="" d="M75 455c-38.7 0-70-31.3-70-70V5h140v380c0 38.7-31.3 70-70 70z" fill="#d8d6c1"/><circle cx="75" cy="385" r="40" fill="#504c43"/><path class="" d="M202 295h-10V59.1L141.5 8.5l7.1-7.1 52 52c.9.9 1.5 2.2 1.5 3.5V295z" fill="#272525"/><path class="" d="M75 460c-41.4 0-75-33.6-75-75V5c0-2.8 2.2-5 5-5h140c2.8 0 5 2.2 5 5v380c0 41.4-33.6 75-75 75zM10 10v375c0 35.8 29.2 65 65 65s65-29.2 65-65V10z" fill="#272525"/><path class="" d="M455 460H5v-10h445V335h10v120c0 2.8-2.2 5-5 5z" fill="#272525"/><path class="" d="M507 512H57c-1.3 0-2.6-.5-3.5-1.5l-52-52c-1-.9-1.5-2.2-1.5-3.5V315h10v137.9L59.1 502H502V369.1L452.9 320H145v-10h310c1.3 0 2.6.5 3.5 1.5l52 52c.9.9 1.5 2.2 1.5 3.5v140c0 2.8-2.2 5-5 5z" fill="#272525"/><path class="" d="M75 430c-24.8 0-45-20.2-45-45s20.2-45 45-45 45 20.2 45 45-20.2 45-45 45zm0-80c-19.3 0-35 15.7-35 35s15.7 35 35 35 35-15.7 35-35-15.7-35-35-35zM400 420H200c-2.8 0-5-2.2-5-5v-60c0-2.8 2.2-5 5-5h200c2.8 0 5 2.2 5 5v60c0 2.8-2.2 5-5 5zm-195-10h190v-50H205zM458.517 451.344l51.965 51.965-7.07 7.07-51.965-51.965zM490 460c-1.3 0-2.6-.5-3.5-1.5l-18-18c-.9-.9-1.5-2.2-1.5-3.5v-70c0-2 1.2-3.8 3.1-4.6s4-.3 5.4 1.1l18 18c.9.9 1.5 2.2 1.5 3.5v70c0 2-1.2 3.8-3.1 4.6-.6.3-1.3.4-1.9.4zm-13-25.1 8 8V387l-8-8z" fill="#272525"/><path class="" d="m295 375h10v20h-10zm20 0h10v20h-10zm20 0h10v20h-10zm20 0h10v20h-10z" fill="#272525"/></svg>