<svg xmlns="http://www.w3.org/2000/svg" version="1.0" preserveAspectRatio="xMidYMid meet" viewBox="370.82 241.74 564.28 101.26">

<g transform="translate(0.000000,629.000000) scale(0.100000,-0.100000)" fill="#000000" stroke="none">
<path d="M4549 3867 c12 -15 11 -17 -8 -17 -11 0 -21 -4 -21 -10 0 -5 4 -10 8 -10 5 0 19 -9 32 -20 20 -17 21 -20 6 -26 -13 -5 -14 -9 -5 -20 9 -11 8 -14 -1 -14 -19 0 9 -30 29 -31 10 0 11 -2 4 -6 -7 -2 -24 4 -38 15 -16 13 -21 22 -13 24 8 3 7 6 -3 10 -11 4 -16 -2 -17 -23 -2 -19 2 -29 11 -29 15 0 77 -29 77 -35 0 -3 -11 -1 -23 4 -43 16 -52 -5 -11 -24 35 -16 36 -19 19 -31 -20 -15 -20 -15 50 -32 39 -10 39 -10 8 -11 -59 -2 -42 -17 39 -35 61 -14 107 -17 187 -14 76 3 96 2 71 -5 -19 -5 -87 -7 -152 -5 -99 3 -115 1 -105 -10 9 -12 36 -13 132 -9 66 3 131 9 145 13 14 4 22 4 19 1 -11 -13 -111 -27 -196 -28 l-85 -2 6 -46 c19 -146 19 -187 -3 -245 -21 -56 -21 -57 -2 -99 20 -46 35 -126 32 -169 -1 -16 2 -28 8 -28 6 0 11 -9 11 -20 0 -18 7 -20 75 -20 41 0 75 2 75 5 0 2 -10 13 -21 24 -18 16 -23 38 -31 118 -5 54 -8 128 -5 164 4 59 8 71 46 118 22 29 41 59 41 66 0 7 3 20 6 29 4 11 1 16 -11 16 -11 0 -15 5 -11 15 4 12 -3 15 -30 15 -19 0 -33 4 -30 8 2 4 23 6 45 4 29 -3 38 -8 34 -18 -3 -9 2 -14 18 -15 13 0 18 -3 12 -6 -7 -2 -13 -11 -13 -18 0 -12 7 -12 42 1 52 18 63 10 14 -10 -20 -8 -36 -17 -36 -20 0 -3 14 -13 31 -22 36 -18 176 -22 207 -5 19 10 20 5 27 -142 10 -221 12 -269 14 -299 1 -28 2 -28 67 -28 69 0 81 13 34 37 -12 6 -27 17 -31 25 -16 24 -9 184 11 283 11 53 20 114 20 134 0 56 12 68 53 53 63 -23 143 -12 188 26 15 12 20 8 41 -30 21 -39 27 -43 63 -43 33 0 43 5 62 34 20 30 23 46 23 132 l0 99 29 0 c39 0 45 12 23 41 -13 15 -29 22 -52 21 -20 0 -39 6 -49 18 -13 15 -95 40 -131 40 -14 0 -12 -26 2 -49 10 -16 8 -29 -12 -73 -52 -117 -107 -126 -197 -33 -29 30 -57 55 -63 55 -5 0 -14 9 -20 20 -6 11 -15 20 -21 20 -9 0 -41 28 -120 102 -50 49 -102 49 -159 2 -28 -24 -36 -26 -88 -20 -175 21 -291 54 -362 105 -20 14 -29 18 -21 8z m71 -58 c17 -13 18 -17 5 -10 -33 17 -51 31 -40 31 6 0 21 -10 35 -21z m36 -57 c-5 -4 -66 26 -66 33 0 3 16 -3 35 -12 19 -9 33 -18 31 -21z m74 16 c10 -6 7 -7 -10 -2 -14 3 -32 11 -40 16 -10 6 -7 7 10 2 14 -3 32 -11 40 -16z m47 -14 c-3 -3 -12 -4 -19 -1 -8 3 -5 6 6 6 11 1 17 -2 13 -5z m-122 -24 c33 -10 51 -19 39 -19 -24 -1 -85 18 -98 30 -14 12 -10 11 59 -11z m65 10 c8 -5 11 -10 5 -10 -5 0 -17 5 -25 10 -8 5 -10 10 -5 10 6 0 17 -5 25 -10z m216 0 c13 0 24 -4 24 -9 0 -10 -47 -5 -110 10 -30 8 -29 8 14 4 27 -3 59 -5 72 -5z m-26 -29 c120 -6 122 -6 50 -11 -67 -5 -238 3 -200 9 11 2 10 5 -5 12 -17 8 -16 8 5 3 14 -4 81 -10 150 -13z m252 7 c27 -16 64 -48 55 -48 -3 0 -22 11 -42 24 -27 18 -45 24 -73 20 -31 -3 -33 -2 -12 5 36 13 48 13 72 -1z m-462 -28 c41 -10 66 -19 55 -19 -23 -1 -124 25 -133 33 -7 8 -8 8 78 -14z m445 -10 c3 -5 12 -10 20 -10 8 0 35 -14 60 -31 l46 -31 -27 -29 c-26 -27 -28 -57 -2 -31 18 18 33 15 18 -3 -20 -25 -2 -31 33 -11 l32 18 -27 -26 c-16 -15 -28 -30 -28 -35 0 -4 -6 -8 -14 -8 -8 0 -12 6 -9 13 2 7 -5 17 -16 24 -12 6 -21 18 -21 26 0 8 -5 12 -10 9 -6 -3 -13 1 -16 10 -5 11 -10 13 -19 5 -9 -7 -16 -6 -25 5 -7 8 -9 15 -5 15 5 0 6 2 3 5 -10 10 -77 -36 -83 -56 -4 -10 -11 -19 -16 -19 -17 0 30 58 51 65 27 9 25 24 -2 19 -21 -4 -21 -4 2 7 21 10 22 13 8 16 -21 5 -23 14 -6 31 9 9 5 12 -17 13 l-30 1 30 8 c44 11 63 11 70 0z m-380 -36 l60 -14 -50 5 c-27 3 -70 12 -95 20 -37 13 -38 14 -10 9 19 -4 62 -13 95 -20z m169 2 c-3 -9 -10 -16 -15 -16 -5 0 -4 9 3 20 14 22 21 20 12 -4z m449 -97 c37 -33 67 -66 67 -74 0 -14 -52 -39 -70 -33 -6 2 1 15 17 28 15 14 21 17 14 7 -17 -22 -9 -33 9 -12 7 8 9 22 6 31 -6 15 -9 15 -34 -2 -24 -15 -25 -15 -13 -1 7 9 10 17 5 17 -5 0 -3 4 5 9 11 7 9 11 -9 21 -20 11 -22 10 -17 -4 8 -21 4 -20 -18 4 -18 20 -18 21 1 15 20 -7 -4 18 -82 83 l-39 33 45 -31 c25 -17 75 -58 113 -91z m-683 66 c52 -14 53 -15 11 -10 -24 3 -51 10 -60 15 -21 12 -16 12 49 -5z m255 -5 c-15 -17 -29 -20 -84 -18 l-66 2 65 3 c43 3 68 9 73 19 4 7 13 14 19 14 6 0 3 -9 -7 -20z m82 14 c-3 -3 -12 -4 -19 -1 -8 3 -5 6 6 6 11 1 17 -2 13 -5z m-16 -33 c-33 -9 -39 -31 -10 -31 18 0 20 -3 11 -12 -9 -9 -18 -8 -37 2 -23 12 -24 15 -8 24 16 9 16 10 -2 17 -14 5 -6 8 25 7 33 0 39 -2 21 -7z m297 -17 c1 -1 -5 -4 -15 -6 -13 -4 -19 0 -19 13 0 14 3 16 16 6 8 -6 16 -12 18 -13z m462 -61 c0 -64 -5 -98 -18 -123 -28 -58 -87 -54 -113 7 -17 38 -16 38 17 91 19 29 34 59 34 67 0 14 44 44 68 45 9 0 12 -24 12 -87z m-971 51 c8 -7 -74 -2 -99 6 -16 5 -2 6 35 3 33 -3 62 -7 64 -9z m311 -24 c-33 -26 -49 -26 -19 0 13 10 29 19 34 19 6 1 -1 -8 -15 -19z m65 -10 c-3 -5 -12 -10 -18 -10 -7 0 -6 4 3 10 19 12 23 12 15 0z m-115 -33 c0 -16 -9 -28 -27 -36 l-28 -12 25 20 c28 22 19 42 -10 23 -11 -7 -25 -12 -32 -12 -13 0 50 38 65 39 4 1 7 -10 7 -22z m70 8 c-7 -8 -16 -12 -21 -9 -5 3 -6 -2 -3 -11 5 -13 13 -12 53 10 l46 25 -35 -30 c-19 -17 -55 -44 -80 -61 l-45 -30 33 29 c17 16 29 32 25 35 -3 4 -15 0 -25 -10 -10 -9 -18 -13 -18 -8 0 4 8 14 18 21 14 11 14 13 2 14 -9 0 -2 9 15 20 36 24 52 26 35 5z m192 -5 c-23 -19 -14 -37 13 -26 25 9 17 -25 -11 -51 -14 -13 -28 -22 -31 -20 -2 3 7 14 21 25 15 11 26 23 26 26 0 11 -21 6 -36 -9 -9 -8 -21 -15 -27 -15 -7 0 -4 5 6 11 9 5 17 17 17 26 0 10 -6 13 -17 9 -10 -4 -4 5 12 18 17 14 35 25 40 25 6 0 0 -8 -13 -19z m-407 -35 c-16 -6 -48 -10 -70 -10 -96 3 -125 5 -125 13 0 4 51 7 113 7 91 0 107 -2 82 -10z m287 -1 c-12 -8 -22 -22 -22 -30 0 -17 4 -17 33 -3 20 9 20 9 5 -4 -31 -25 -22 -39 13 -22 17 9 33 14 36 12 2 -3 -5 -8 -16 -12 -12 -3 -21 -11 -21 -16 0 -6 8 -5 21 1 11 7 23 9 26 6 3 -3 -7 -10 -22 -16 -15 -6 -30 -8 -33 -5 -3 2 -11 0 -19 -6 -10 -9 -13 -7 -14 7 -1 11 -1 23 0 27 1 5 -3 6 -8 3 -5 -4 -11 4 -13 16 -3 22 25 57 47 58 5 0 -1 -7 -13 -16z m63 -14 c-3 -5 -11 -10 -16 -10 -6 0 -7 5 -4 10 3 6 11 10 16 10 6 0 7 -4 4 -10z m-225 -14 c0 -2 -7 -7 -16 -10 -8 -3 -12 -2 -9 4 6 10 25 14 25 6z m87 -24 c-15 -15 -27 -32 -27 -38 0 -5 -19 -10 -43 -11 l-42 -2 39 14 c22 8 51 25 65 39 35 35 42 33 8 -2z m48 -31 c-6 -5 -21 -12 -35 -15 l-25 -7 25 15 c28 17 50 21 35 7z m-401 -179 c-18 -49 -18 -51 3 -99 30 -69 42 -132 35 -176 -6 -35 -9 -37 -25 -25 -37 27 -51 327 -17 348 22 14 23 6 4 -48z"/>
<path d="M5104 3659 c0 -16 5 -19 26 -14 24 6 24 6 5 -9 -26 -18 -11 -34 16 -17 12 7 24 10 27 7 3 -3 0 -6 -6 -6 -6 0 -16 -9 -22 -20 -10 -18 -8 -19 15 -10 21 8 25 7 25 -9 0 -23 30 -18 55 9 21 23 2 38 -23 18 -15 -12 -16 -11 -4 4 11 14 10 17 -7 23 -12 3 -21 11 -21 16 0 5 -8 9 -18 9 -10 0 -22 3 -26 7 -16 16 -42 12 -42 -8z"/>
<path d="M3998 3731 c-205 -66 -312 -240 -286 -462 17 -138 99 -252 225 -312 65 -31 73 -32 188 -32 142 1 196 18 288 90 l58 46 -47 54 -46 55 -42 -35 c-156 -128 -371 -95 -459 70 -30 56 -31 192 -2 250 84 171 304 206 464 74 l34 -28 53 47 53 46 -37 34 c-121 109 -297 150 -444 103z"/>
<path d="M5950 3335 l0 -415 75 0 75 0 0 259 c0 143 4 262 9 265 5 3 87 -113 182 -259 l173 -265 73 0 73 0 0 245 0 245 -75 0 -75 0 0 -101 c0 -88 -2 -100 -15 -89 -8 6 -90 128 -182 271 l-168 259 -72 0 -73 0 0 -415z"/>
<path d="M6460 3675 l0 -75 75 0 75 0 0 75 0 75 -75 0 -75 0 0 -75z"/>
<path d="M6740 3676 l0 -76 146 0 c185 0 225 -10 286 -71 56 -56 72 -104 72 -214 0 -67 -4 -88 -27 -132 -46 -89 -93 -113 -233 -116 l-89 -2 -3 178 -2 177 -75 0 -75 0 0 -251 0 -251 198 3 197 4 67 33 c38 19 80 49 97 69 154 187 125 511 -58 650 -70 54 -124 66 -323 71 l-178 4 0 -76z"/>
<path d="M7530 3675 l0 -75 230 0 231 0 -3 73 -3 72 -227 3 -228 2 0 -75z"/>
<path d="M8110 3675 l0 -75 148 0 c158 0 200 -7 253 -43 69 -47 102 -125 101 -242 0 -77 -10 -111 -49 -167 -38 -56 -90 -77 -203 -80 l-95 -3 -3 178 -2 177 -75 0 -75 0 0 -251 0 -251 198 4 c179 4 202 6 249 27 223 99 281 466 107 678 -76 93 -175 123 -406 123 l-148 0 0 -75z"/>
<path d="M8900 3675 l0 -75 225 0 225 0 0 75 0 75 -225 0 -225 0 0 -75z"/>
<path d="M4681 3467 c0 -15 -6 -36 -13 -46 -9 -14 -8 -27 4 -57 16 -38 16 -38 23 -13 3 14 2 52 -3 85 -5 32 -10 47 -11 31z"/>
<path d="M8900 3180 l0 -260 225 0 225 0 0 70 0 69 -147 3 -148 3 -3 112 -3 112 148 3 148 3 3 73 3 72 -226 0 -225 0 0 -260z"/>
<path d="M7686 3408 c3 -4 2 -84 -2 -178 l-7 -170 -74 0 -73 0 0 -70 0 -70 230 0 230 0 0 70 0 69 -77 3 -78 3 -3 172 -2 171 -74 4 c-41 2 -72 0 -70 -4z"/>
</g>
</svg>