<svg xmlns="http://www.w3.org/2000/svg" version="1.0" preserveAspectRatio="xMidYMid meet" viewBox="79.08 123.54 349.92 262.46">

<g transform="translate(0.000000,500.000000) scale(0.100000,-0.100000)" fill="currentColor" stroke="none">
<path d="M970 3764 c0 -4 11 -27 25 -50 30 -51 123 -120 218 -163 158 -71 436 -138 667 -161 63 -6 131 -14 150 -17 l35 -5 -36 -19 c-20 -10 -39 -25 -42 -33 -5 -14 4 -15 71 -10 42 3 138 15 212 26 236 34 211 35 282 -7 149 -90 267 -178 502 -379 131 -112 201 -189 212 -232 8 -31 -1 -41 -22 -24 -11 10 -18 10 -22 3 -7 -10 -108 -73 -117 -73 -3 0 -5 7 -5 15 0 11 -7 10 -35 -6 -19 -11 -39 -18 -44 -14 -6 3 -36 -15 -68 -41 -64 -53 -161 -102 -219 -111 -34 -6 -37 -4 -30 13 5 14 -1 11 -23 -10 l-31 -30 0 30 c0 17 -3 33 -6 37 -3 3 -29 -7 -58 -23 -58 -32 -145 -60 -189 -60 -30 0 -30 -1 -10 47 3 7 -17 5 -57 -8 -92 -28 -148 -23 -135 13 5 13 -5 12 -60 -8 -36 -13 -75 -24 -86 -24 -38 0 -14 -24 67 -67 102 -55 167 -74 280 -80 104 -7 216 14 298 53 l49 24 -6 -298 c-4 -180 -3 -313 3 -337 5 -22 17 -94 25 -160 14 -102 15 -132 4 -198 -10 -60 -10 -85 -1 -111 7 -18 12 -53 12 -79 l0 -47 160 0 c136 0 162 2 167 16 10 26 -15 63 -54 80 -21 9 -44 19 -52 23 -7 4 -27 40 -43 81 -30 74 -30 76 -25 220 5 112 20 233 71 539 36 217 69 398 74 403 6 6 41 0 93 -17 112 -35 187 -41 272 -21 81 19 135 45 201 97 l49 39 24 -74 c14 -40 39 -91 56 -111 100 -122 275 -62 318 108 9 36 14 127 14 293 l0 241 62 -5 c68 -5 123 11 123 35 0 49 -63 121 -120 138 -14 4 -28 12 -31 16 -3 5 -27 5 -55 0 -47 -9 -50 -9 -84 24 -49 46 -93 66 -159 71 -31 3 -80 12 -109 21 -43 12 -58 13 -82 3 -17 -7 -30 -19 -30 -26 0 -30 33 -94 51 -99 15 -5 18 -12 13 -28 -15 -50 -24 -67 -34 -67 -5 0 -10 -14 -10 -31 0 -50 -58 -174 -106 -228 -116 -129 -216 -102 -417 113 -104 112 -204 199 -297 261 -25 16 -98 83 -163 148 -138 136 -188 167 -274 167 -81 0 -145 -26 -211 -86 l-57 -51 -125 8 c-432 26 -798 133 -965 282 -30 27 -55 45 -55 41z m3110 -942 c0 -296 -22 -376 -116 -422 -105 -52 -176 0 -229 171 l-18 55 37 48 c43 57 105 163 135 230 25 57 39 70 103 91 25 9 52 23 58 31 7 7 16 14 21 14 5 0 9 -98 9 -218z"/>
<path d="M871 3671 c-21 -6 -3 -19 130 -92 85 -47 181 -97 214 -112 189 -82 537 -168 680 -166 54 0 62 3 82 28 l22 28 -67 7 c-313 31 -640 116 -800 207 -29 17 -74 49 -98 70 -39 34 -51 39 -92 38 -26 -1 -58 -4 -71 -8z"/>
<path d="M910 3502 c0 -24 48 -78 100 -111 170 -110 493 -172 900 -172 202 -1 351 10 482 35 79 15 89 12 242 -78 121 -72 369 -257 578 -434 11 -9 18 -11 18 -4 0 19 -119 132 -272 259 -186 155 -295 235 -402 296 l-84 48 -74 -15 c-156 -32 -333 -48 -538 -48 -301 0 -513 29 -700 94 -105 37 -144 57 -203 102 -26 20 -47 33 -47 28z"/>
<path d="M1015 3491 l-30 -7 40 -25 c56 -36 159 -76 258 -99 101 -24 277 -50 332 -49 32 1 19 6 -65 28 -139 36 -255 75 -364 122 -89 39 -113 43 -171 30z"/>
<path d="M821 3409 c-18 -6 -32 -12 -30 -13 18 -15 343 -150 409 -169 172 -52 395 -89 605 -102 l110 -7 27 41 27 41 -132 0 c-140 0 -339 19 -472 46 -169 34 -365 111 -405 159 -14 17 -85 19 -139 4z"/>
<path d="M1025 3253 c-11 -2 -35 -9 -54 -15 l-35 -11 55 -28 c127 -67 360 -128 589 -154 165 -20 410 -20 410 -2 0 8 9 22 20 32 11 10 20 21 20 25 0 3 -69 7 -152 7 -233 1 -527 48 -728 118 -54 19 -100 34 -102 34 -2 -1 -12 -3 -23 -6z"/>
<path d="M2320 3224 c-41 -7 -131 -16 -200 -20 -111 -6 -127 -10 -147 -30 -13 -13 -23 -27 -23 -33 0 -11 139 -25 250 -26 96 0 151 11 144 29 -3 9 12 26 40 45 80 55 72 59 -64 35z"/>
<path d="M2417 3195 c-42 -38 -45 -44 -28 -50 29 -9 96 12 128 39 l27 23 -31 17 c-18 9 -36 16 -40 16 -4 -1 -29 -21 -56 -45z"/>
<path d="M2518 3165 c-25 -16 -56 -47 -68 -67 l-21 -38 23 0 c28 0 111 40 151 74 l29 23 -34 19 -33 20 -47 -31z"/>
<path d="M2630 3135 c-6 -7 -34 -28 -61 -46 -42 -26 -79 -71 -79 -94 0 -25 145 35 195 81 28 26 28 27 9 41 -39 30 -52 33 -64 18z"/>
<path d="M2338 3111 c-28 -9 -85 -14 -165 -13 -120 1 -123 0 -143 -25 -11 -14 -17 -29 -14 -34 9 -15 214 -10 282 6 85 20 141 50 142 75 0 10 -59 5 -102 -9z"/>
<path d="M1091 3086 l-44 -23 82 -22 c231 -62 379 -81 687 -88 l261 -6 21 24 c32 33 28 39 -25 39 -392 -2 -607 18 -819 75 -110 30 -108 30 -163 1z"/>
<path d="M2690 3060 c-73 -61 -90 -79 -90 -99 0 -12 6 -21 14 -21 21 0 151 68 170 89 16 18 16 20 -17 40 -19 11 -36 21 -38 21 -2 0 -20 -14 -39 -30z"/>
<path d="M2340 3039 c-30 -11 -86 -23 -123 -26 -59 -5 -70 -9 -87 -34 -29 -40 -25 -49 23 -49 58 0 138 24 221 68 62 32 67 37 50 49 -21 16 -16 16 -84 -8z"/>
<path d="M2469 3035 c-8 -7 -49 -32 -92 -55 -77 -42 -92 -57 -107 -111 -8 -26 -6 -29 16 -29 27 0 135 52 204 99 l45 31 -32 0 c-36 0 -42 15 -22 52 13 25 7 32 -12 13z"/>
<path d="M2760 2995 c-72 -55 -80 -64 -80 -91 0 -22 3 -24 23 -18 43 13 132 62 151 83 18 20 18 21 -5 40 -31 26 -36 26 -89 -14z"/>
<path d="M1165 2977 l-40 -13 60 -23 c222 -84 644 -107 915 -49 55 11 55 11 21 19 -18 4 -36 11 -40 16 -3 4 -118 8 -256 9 -207 1 -274 5 -390 23 -189 30 -223 33 -270 18z"/>
<path d="M2518 2941 c-32 -26 -89 -63 -126 -81 -69 -33 -92 -62 -92 -113 0 -18 15 -23 24 -8 3 5 61 36 128 70 68 33 139 74 158 91 l35 30 -34 -7 -34 -6 5 36 c2 21 2 37 -2 36 -3 0 -31 -22 -62 -48z"/>
<path d="M2845 2939 c-22 -16 -48 -36 -57 -44 -23 -19 -24 -65 -3 -65 26 0 78 30 117 68 35 34 37 37 21 54 -21 24 -30 22 -78 -13z"/>
<path d="M2240 2920 c-32 -21 -149 -52 -250 -65 -125 -17 -319 -19 -460 -5 -110 12 -154 5 -185 -30 -16 -18 -15 -19 42 -27 84 -12 433 -8 538 6 218 29 315 57 334 97 17 37 12 44 -19 24z"/>
<path d="M2617 2886 c-27 -24 -70 -53 -97 -66 -39 -18 -52 -31 -65 -62 -8 -21 -15 -42 -15 -47 0 -14 182 87 226 125 32 27 35 32 15 27 -22 -6 -23 -4 -19 31 2 20 4 36 3 36 0 -1 -22 -20 -48 -44z"/>
<path d="M2900 2873 c-53 -44 -89 -93 -90 -122 0 -28 124 24 190 80 l35 29 -35 30 c-19 16 -37 29 -40 29 -3 0 -30 -21 -60 -46z"/>
<path d="M2729 2864 c-13 -14 -60 -50 -104 -79 -83 -54 -105 -83 -105 -136 l0 -29 53 34 c28 18 73 45 99 60 54 30 108 74 108 87 0 5 -7 9 -16 9 -14 0 -16 7 -11 40 3 22 4 40 3 40 -1 0 -13 -12 -27 -26z"/>
<path d="M1313 2855 c-9 -25 2 -27 28 -6 l24 20 -23 1 c-12 0 -25 -7 -29 -15z"/>
<path d="M2177 2828 c-115 -35 -379 -68 -556 -68 -49 0 -72 -5 -91 -20 -14 -10 -21 -22 -17 -27 5 -4 99 -8 210 -8 158 0 220 4 287 19 89 19 241 72 239 84 0 4 -3 14 -7 23 -6 14 -13 13 -65 -3z"/>
<path d="M3000 2807 c-44 -40 -79 -101 -67 -113 16 -16 177 74 177 98 0 9 -50 57 -60 58 -3 0 -25 -19 -50 -43z"/>
<path d="M2228 2774 c-78 -33 -212 -71 -281 -79 -40 -5 -68 -15 -88 -32 -48 -41 -38 -47 62 -40 116 9 212 32 291 71 53 26 64 36 71 65 4 18 7 35 5 36 -2 2 -29 -8 -60 -21z"/>
<path d="M2764 2759 c-16 -17 -50 -43 -77 -57 -44 -25 -87 -84 -87 -120 0 -27 155 52 230 119 31 28 33 30 11 25 -13 -3 -33 -1 -43 5 -15 8 -16 14 -7 30 17 33 5 32 -27 -2z"/>
<path d="M1313 2693 c5 -77 3 -91 -14 -112 -23 -28 -24 -90 -3 -146 9 -22 21 -60 28 -84 l13 -44 24 39 c32 52 38 149 14 230 -9 32 -19 91 -22 131 -5 65 -8 73 -26 73 -19 0 -20 -5 -14 -87z"/>
<path d="M2380 2754 c-25 -14 -55 -34 -66 -45 -12 -12 -24 -16 -28 -11 -3 5 -31 -4 -63 -20 -32 -15 -96 -37 -143 -49 -78 -19 -119 -44 -120 -71 -1 -30 185 18 300 77 84 44 180 116 180 136 0 14 -11 11 -60 -17z"/>
<path d="M3088 2747 c-39 -33 -65 -91 -46 -103 5 -4 34 19 64 51 43 46 52 60 43 71 -16 19 -18 18 -61 -19z"/>
<path d="M1414 2615 c3 -82 9 -233 12 -335 l6 -185 -32 -90 c-40 -115 -42 -179 -6 -255 33 -71 89 -291 89 -350 0 -25 -2 -64 -4 -87 -3 -30 1 -47 16 -63 10 -11 21 -40 24 -63 l6 -42 203 -3 c164 -2 202 0 202 11 0 15 -30 44 -71 69 -58 36 -82 164 -98 517 -14 295 3 368 104 471 59 60 135 194 135 238 0 15 6 39 14 54 l14 27 -46 3 c-48 3 -50 5 -37 46 6 22 5 22 -74 22 -45 0 -81 3 -81 8 0 4 9 22 20 40 l21 34 -32 -7 c-40 -9 -291 4 -310 16 -12 7 -11 13 3 38 l16 29 -50 4 -50 3 6 -150z m210 -487 c-4 -29 -18 -84 -31 -122 -31 -92 -30 -150 3 -212 25 -47 79 -220 104 -335 11 -49 10 -62 -5 -103 -17 -43 -17 -61 1 -130 l6 -27 -48 29 c-43 25 -50 34 -67 88 -35 115 -60 318 -61 509 -1 166 1 184 22 238 21 50 65 117 78 117 3 0 2 -24 -2 -52z"/>
<path d="M2854 2700 c-37 -33 -93 -75 -125 -93 -55 -30 -59 -34 -59 -69 0 -41 10 -48 30 -22 8 8 44 33 82 55 86 50 141 98 134 116 -3 7 -1 25 5 39 5 15 8 29 5 31 -2 2 -34 -23 -72 -57z"/>
<path d="M3150 2715 c-30 -48 -22 -61 19 -33 42 28 47 40 22 55 -17 11 -22 8 -41 -22z"/>
<path d="M2380 2684 c-50 -37 -177 -99 -252 -124 -54 -17 -68 -27 -84 -55 -10 -19 -15 -37 -12 -40 20 -20 203 60 322 139 79 53 156 115 126 100 -8 -4 -23 -14 -32 -22 -16 -13 -18 -13 -26 7 l-8 21 -34 -26z"/>
<path d="M2976 2682 c-22 -7 -58 -30 -81 -51 -23 -21 -60 -49 -83 -62 -22 -13 -48 -37 -58 -53 l-17 -29 29 7 c79 20 261 154 253 186 -4 13 -9 14 -43 2z"/>
<path d="M2458 2653 c-23 -20 -79 -60 -123 -88 -44 -29 -89 -62 -99 -74 l-19 -21 44 0 c56 0 130 35 190 89 41 35 47 47 51 86 2 25 2 45 2 45 -1 0 -22 -16 -46 -37z"/>
<path d="M2551 2615 c-23 -21 -41 -34 -41 -29 0 16 -62 -52 -81 -88 -27 -53 -25 -57 23 -46 56 12 198 87 198 104 0 10 -6 11 -31 2 -40 -14 -45 -6 -32 45 6 23 10 43 8 45 -2 2 -22 -13 -44 -33z"/>
</g>
</svg>